solid OpenSCAD_Model
  facet normal 0 -1 0
    outer loop
      vertex -4 -7.94167 8
      vertex 2.14116e-016 -7.94167 8.96429
      vertex -4 -7.94167 8.96429
    endloop
  endfacet
  facet normal 0 -1 0
    outer loop
      vertex 2.14116e-016 -7.94167 8.96429
      vertex -4 -7.94167 8
      vertex 0 -7.94167 8
    endloop
  endfacet
  facet normal 0 -1 0
    outer loop
      vertex -19 -7.94167 8
      vertex -15 -7.94167 8.96429
      vertex -19 -7.94167 8.96429
    endloop
  endfacet
  facet normal 0 -1 -0
    outer loop
      vertex -15 -7.94167 8.96429
      vertex -19 -7.94167 8
      vertex -15 -7.94167 8
    endloop
  endfacet
  facet normal -1 0 0
    outer loop
      vertex -19 28 4.21885e-015
      vertex -19 27.9417 8
      vertex -19 28 8
    endloop
  endfacet
  facet normal -1 0 0
    outer loop
      vertex -19 24.4445 7.53286
      vertex -19 27.9417 8.96429
      vertex -19 27.9417 8
    endloop
  endfacet
  facet normal -1 0 0
    outer loop
      vertex -19 23.8703 5.7655
      vertex -19 27.9417 8
      vertex -19 28 4.21885e-015
    endloop
  endfacet
  facet normal -1 -0 0
    outer loop
      vertex -19 27.9417 8.96429
      vertex -19 24.4445 7.53286
      vertex -19 24.2503 9.381
    endloop
  endfacet
  facet normal -1 0 0
    outer loop
      vertex -19 27.9417 8.96429
      vertex -19 24.2503 9.381
      vertex -19 27.4801 10.8368
    endloop
  endfacet
  facet normal -1 -0 0
    outer loop
      vertex -19 27.4801 10.8368
      vertex -19 24.2503 9.381
      vertex -19 26.5839 12.5445
    endloop
  endfacet
  facet normal -1 0 0
    outer loop
      vertex -19 27.9417 8
      vertex -19 23.8703 5.7655
      vertex -19 24.4445 7.53286
    endloop
  endfacet
  facet normal -1 0 0
    outer loop
      vertex -19 28 4.21885e-015
      vertex -19 22.6268 4.3845
      vertex -19 23.8703 5.7655
    endloop
  endfacet
  facet normal -1 0 0
    outer loop
      vertex -19 28 4.21885e-015
      vertex -19 20.9292 3.62866
      vertex -19 22.6268 4.3845
    endloop
  endfacet
  facet normal -1 0 0
    outer loop
      vertex -19 28 4.21885e-015
      vertex -19 19.0708 3.62866
      vertex -19 20.9292 3.62866
    endloop
  endfacet
  facet normal -1 0 0
    outer loop
      vertex -19 16.1297 5.7655
      vertex -19 1.55885 7.1
      vertex -19 15.5555 7.53286
    endloop
  endfacet
  facet normal -1 0 0
    outer loop
      vertex -19 17.3732 4.3845
      vertex -19 1.55885 7.1
      vertex -19 16.1297 5.7655
    endloop
  endfacet
  facet normal -1 0 0
    outer loop
      vertex -19 -8 4.21885e-015
      vertex -19 17.3732 4.3845
      vertex -19 19.0708 3.62866
    endloop
  endfacet
  facet normal -1 0 0
    outer loop
      vertex -19 -8 4.21885e-015
      vertex -19 19.0708 3.62866
      vertex -19 28 4.21885e-015
    endloop
  endfacet
  facet normal -1 0 0
    outer loop
      vertex -19 17.3732 4.3845
      vertex -19 0 6.2
      vertex -19 1.55885 7.1
    endloop
  endfacet
  facet normal -1 0 0
    outer loop
      vertex -19 -7.94167 8
      vertex -19 -1.55885 8.9
      vertex -19 -1.55885 7.1
    endloop
  endfacet
  facet normal -1 0 0
    outer loop
      vertex -19 -1.55885 8.9
      vertex -19 -3.71778 15.0836
      vertex -19 -1.91453 15.7675
    endloop
  endfacet
  facet normal -1 0 0
    outer loop
      vertex -19 -1.55885 8.9
      vertex -19 -5.30498 13.9881
      vertex -19 -3.71778 15.0836
    endloop
  endfacet
  facet normal -1 0 0
    outer loop
      vertex -19 -1.55885 8.9
      vertex -19 -6.58387 12.5445
      vertex -19 -5.30498 13.9881
    endloop
  endfacet
  facet normal -1 0 0
    outer loop
      vertex -19 -1.55885 8.9
      vertex -19 -7.48013 10.8368
      vertex -19 -6.58387 12.5445
    endloop
  endfacet
  facet normal -1 -0 0
    outer loop
      vertex -19 -1.55885 8.9
      vertex -19 -7.94167 8
      vertex -19 -7.94167 8.96429
    endloop
  endfacet
  facet normal -1 0 0
    outer loop
      vertex -19 -8 4.21885e-015
      vertex -19 -1.55885 7.1
      vertex -19 0 6.2
    endloop
  endfacet
  facet normal -1 -0 0
    outer loop
      vertex -19 17.3732 4.3845
      vertex -19 -8 4.21885e-015
      vertex -19 0 6.2
    endloop
  endfacet
  facet normal -1 -0 0
    outer loop
      vertex -19 -1.55885 7.1
      vertex -19 -8 4.21885e-015
      vertex -19 -7.94167 8
    endloop
  endfacet
  facet normal -1 -0 0
    outer loop
      vertex -19 -7.94167 8
      vertex -19 -8 4.21885e-015
      vertex -19 -8 8
    endloop
  endfacet
  facet normal -1 0 0
    outer loop
      vertex -19 23.3211 10.9903
      vertex -19 26.5839 12.5445
      vertex -19 24.2503 9.381
    endloop
  endfacet
  facet normal -1 -0 0
    outer loop
      vertex -19 26.5839 12.5445
      vertex -19 23.3211 10.9903
      vertex -19 25.305 13.9881
    endloop
  endfacet
  facet normal -1 0 0
    outer loop
      vertex -19 21.8177 12.0826
      vertex -19 25.305 13.9881
      vertex -19 23.3211 10.9903
    endloop
  endfacet
  facet normal -1 -0 0
    outer loop
      vertex -19 25.305 13.9881
      vertex -19 21.8177 12.0826
      vertex -19 23.7178 15.0836
    endloop
  endfacet
  facet normal -1 -0 0
    outer loop
      vertex -19 23.7178 15.0836
      vertex -19 21.8177 12.0826
      vertex -19 21.9145 15.7675
    endloop
  endfacet
  facet normal -1 0 0
    outer loop
      vertex -19 20 12.469
      vertex -19 21.9145 15.7675
      vertex -19 21.8177 12.0826
    endloop
  endfacet
  facet normal -1 0 0
    outer loop
      vertex -19 20 12.469
      vertex -19 20 16
      vertex -19 21.9145 15.7675
    endloop
  endfacet
  facet normal -1 0 0
    outer loop
      vertex -19 18.1823 12.0826
      vertex -19 20 16
      vertex -19 20 12.469
    endloop
  endfacet
  facet normal -1 0 0
    outer loop
      vertex -19 16.6789 10.9903
      vertex -19 20 16
      vertex -19 18.1823 12.0826
    endloop
  endfacet
  facet normal -1 0 0
    outer loop
      vertex -19 1.55885 8.9
      vertex -19 15.5555 7.53286
      vertex -19 1.55885 7.1
    endloop
  endfacet
  facet normal -1 0 0
    outer loop
      vertex -19 15.5555 7.53286
      vertex -19 1.55885 8.9
      vertex -19 15.7497 9.381
    endloop
  endfacet
  facet normal -1 0 0
    outer loop
      vertex -19 0 16
      vertex -19 15.7497 9.381
      vertex -19 1.55885 8.9
    endloop
  endfacet
  facet normal -1 0 0
    outer loop
      vertex -19 15.7497 9.381
      vertex -19 0 16
      vertex -19 16.6789 10.9903
    endloop
  endfacet
  facet normal -1 0 0
    outer loop
      vertex -19 0 16
      vertex -19 1.55885 8.9
      vertex -19 0 9.8
    endloop
  endfacet
  facet normal -1 0 0
    outer loop
      vertex -19 16.6789 10.9903
      vertex -19 0 16
      vertex -19 20 16
    endloop
  endfacet
  facet normal -1 0 0
    outer loop
      vertex -19 -1.91453 15.7675
      vertex -19 0 9.8
      vertex -19 -1.55885 8.9
    endloop
  endfacet
  facet normal -1 0 0
    outer loop
      vertex -19 0 9.8
      vertex -19 -1.91453 15.7675
      vertex -19 0 16
    endloop
  endfacet
  facet normal -1 0 0
    outer loop
      vertex -19 -1.55885 8.9
      vertex -19 -7.94167 8.96429
      vertex -19 -7.48013 10.8368
    endloop
  endfacet
  facet normal 1 0 -2.22045e-016
    outer loop
      vertex 3.06643e-016 24.2503 9.381
      vertex 2.14116e-016 27.9417 8.96429
      vertex 6.29905e-016 27.4801 10.8368
    endloop
  endfacet
  facet normal 1 0 -2.22045e-016
    outer loop
      vertex 0 27.9417 8
      vertex -1.77636e-015 28 0
      vertex 0 28 8
    endloop
  endfacet
  facet normal 1 0 -2.22045e-016
    outer loop
      vertex -1.03725e-016 24.4445 7.53286
      vertex 2.14116e-016 27.9417 8.96429
      vertex 3.06643e-016 24.2503 9.381
    endloop
  endfacet
  facet normal 1 0 -2.22045e-016
    outer loop
      vertex 3.06643e-016 24.2503 9.381
      vertex 6.29905e-016 27.4801 10.8368
      vertex 1.00909e-015 26.5839 12.5445
    endloop
  endfacet
  facet normal 1 0 -2.22045e-016
    outer loop
      vertex 6.6399e-016 23.3211 10.9903
      vertex 1.00909e-015 26.5839 12.5445
      vertex 1.32962e-015 25.305 13.9881
    endloop
  endfacet
  facet normal 1 0 -2.22045e-016
    outer loop
      vertex -4.96159e-016 23.8703 5.7655
      vertex 0 27.9417 8
      vertex -1.03725e-016 24.4445 7.53286
    endloop
  endfacet
  facet normal 1 0 -2.22045e-016
    outer loop
      vertex 0 27.9417 8
      vertex -4.96159e-016 23.8703 5.7655
      vertex -1.77636e-015 28 0
    endloop
  endfacet
  facet normal 1 0 -2.22045e-016
    outer loop
      vertex -8.02802e-016 22.6268 4.3845
      vertex -1.77636e-015 28 0
      vertex -4.96159e-016 23.8703 5.7655
    endloop
  endfacet
  facet normal 1 0 -2.22045e-016
    outer loop
      vertex -9.70633e-016 20.9292 3.62866
      vertex -1.77636e-015 28 0
      vertex -8.02802e-016 22.6268 4.3845
    endloop
  endfacet
  facet normal 1 0 -2.22045e-016
    outer loop
      vertex -9.70633e-016 19.0708 3.62866
      vertex -1.77636e-015 28 0
      vertex -9.70633e-016 20.9292 3.62866
    endloop
  endfacet
  facet normal 1 0 -2.22045e-016
    outer loop
      vertex -1.9984e-016 1.55885 7.1
      vertex -1.03725e-016 15.5555 7.53286
      vertex 1.9984e-016 1.55885 8.9
    endloop
  endfacet
  facet normal 1 0 -2.22045e-016
    outer loop
      vertex -1.03725e-016 15.5555 7.53286
      vertex -1.9984e-016 1.55885 7.1
      vertex -4.96159e-016 16.1297 5.7655
    endloop
  endfacet
  facet normal 1 0 -2.22045e-016
    outer loop
      vertex -4.96159e-016 16.1297 5.7655
      vertex -1.9984e-016 1.55885 7.1
      vertex -8.02802e-016 17.3732 4.3845
    endloop
  endfacet
  facet normal 1 0 -2.22045e-016
    outer loop
      vertex -3.9968e-016 0 6.2
      vertex -8.02802e-016 17.3732 4.3845
      vertex -1.9984e-016 1.55885 7.1
    endloop
  endfacet
  facet normal 1 0 -2.22045e-016
    outer loop
      vertex -1.77636e-015 -8 0
      vertex -8.02802e-016 17.3732 4.3845
      vertex -3.9968e-016 0 6.2
    endloop
  endfacet
  facet normal 1 0 -2.22045e-016
    outer loop
      vertex -8.02802e-016 17.3732 4.3845
      vertex -1.77636e-015 -8 0
      vertex -9.70633e-016 19.0708 3.62866
    endloop
  endfacet
  facet normal 1 0 -2.22045e-016
    outer loop
      vertex 1.32962e-015 -5.30498 13.9881
      vertex 1.9984e-016 -1.55885 8.9
      vertex 1.57289e-015 -3.71778 15.0836
    endloop
  endfacet
  facet normal 1 0 -2.22045e-016
    outer loop
      vertex 1.00909e-015 -6.58387 12.5445
      vertex 1.9984e-016 -1.55885 8.9
      vertex 1.32962e-015 -5.30498 13.9881
    endloop
  endfacet
  facet normal 1 0 -2.22045e-016
    outer loop
      vertex 6.29905e-016 -7.48013 10.8368
      vertex 1.9984e-016 -1.55885 8.9
      vertex 1.00909e-015 -6.58387 12.5445
    endloop
  endfacet
  facet normal 1 0 -2.22045e-016
    outer loop
      vertex 2.14116e-016 -7.94167 8.96429
      vertex 1.9984e-016 -1.55885 8.9
      vertex 6.29905e-016 -7.48013 10.8368
    endloop
  endfacet
  facet normal 1 0 -2.22045e-016
    outer loop
      vertex 0 -7.94167 8
      vertex 1.9984e-016 -1.55885 8.9
      vertex 2.14116e-016 -7.94167 8.96429
    endloop
  endfacet
  facet normal 1 0 -2.22045e-016
    outer loop
      vertex 1.9984e-016 -1.55885 8.9
      vertex 0 -7.94167 8
      vertex -1.9984e-016 -1.55885 7.1
    endloop
  endfacet
  facet normal 1 0 -2.22045e-016
    outer loop
      vertex -1.77636e-015 -8 0
      vertex -1.9984e-016 -1.55885 7.1
      vertex 0 -7.94167 8
    endloop
  endfacet
  facet normal 1 0 -2.22045e-016
    outer loop
      vertex -1.77636e-015 -8 0
      vertex 0 -7.94167 8
      vertex 0 -8 8
    endloop
  endfacet
  facet normal 1 0 -2.22045e-016
    outer loop
      vertex -9.70633e-016 19.0708 3.62866
      vertex -1.77636e-015 -8 0
      vertex -1.77636e-015 28 0
    endloop
  endfacet
  facet normal 1 0 -2.22045e-016
    outer loop
      vertex -1.9984e-016 -1.55885 7.1
      vertex -1.77636e-015 -8 0
      vertex -3.9968e-016 0 6.2
    endloop
  endfacet
  facet normal 1 0 -2.22045e-016
    outer loop
      vertex 2.14116e-016 27.9417 8.96429
      vertex -1.03725e-016 24.4445 7.53286
      vertex 0 27.9417 8
    endloop
  endfacet
  facet normal 1 0 -2.22045e-016
    outer loop
      vertex 9.06527e-016 21.8177 12.0826
      vertex 1.32962e-015 25.305 13.9881
      vertex 1.57289e-015 23.7178 15.0836
    endloop
  endfacet
  facet normal 1 0 -2.22045e-016
    outer loop
      vertex 1.00909e-015 26.5839 12.5445
      vertex 6.6399e-016 23.3211 10.9903
      vertex 3.06643e-016 24.2503 9.381
    endloop
  endfacet
  facet normal 1 0 -2.22045e-016
    outer loop
      vertex 9.06527e-016 21.8177 12.0826
      vertex 1.57289e-015 23.7178 15.0836
      vertex 1.72474e-015 21.9145 15.7675
    endloop
  endfacet
  facet normal 1 0 -2.22045e-016
    outer loop
      vertex 1.32962e-015 25.305 13.9881
      vertex 9.06527e-016 21.8177 12.0826
      vertex 6.6399e-016 23.3211 10.9903
    endloop
  endfacet
  facet normal 1 0 -2.22045e-016
    outer loop
      vertex 9.92317e-016 20 12.469
      vertex 1.72474e-015 21.9145 15.7675
      vertex 1.77636e-015 20 16
    endloop
  endfacet
  facet normal 1 0 -2.22045e-016
    outer loop
      vertex 1.72474e-015 21.9145 15.7675
      vertex 9.92317e-016 20 12.469
      vertex 9.06527e-016 21.8177 12.0826
    endloop
  endfacet
  facet normal 1 0 -2.22045e-016
    outer loop
      vertex 1.77636e-015 20 16
      vertex 9.06527e-016 18.1823 12.0826
      vertex 9.92317e-016 20 12.469
    endloop
  endfacet
  facet normal 1 0 -2.22045e-016
    outer loop
      vertex 1.77636e-015 20 16
      vertex 6.6399e-016 16.6789 10.9903
      vertex 9.06527e-016 18.1823 12.0826
    endloop
  endfacet
  facet normal 1 0 -2.22045e-016
    outer loop
      vertex 3.06643e-016 15.7497 9.381
      vertex 1.9984e-016 1.55885 8.9
      vertex -1.03725e-016 15.5555 7.53286
    endloop
  endfacet
  facet normal 1 0 -2.22045e-016
    outer loop
      vertex 1.77636e-015 0 16
      vertex 3.06643e-016 15.7497 9.381
      vertex 6.6399e-016 16.6789 10.9903
    endloop
  endfacet
  facet normal 1 0 -2.22045e-016
    outer loop
      vertex 1.77636e-015 0 16
      vertex 6.6399e-016 16.6789 10.9903
      vertex 1.77636e-015 20 16
    endloop
  endfacet
  facet normal 1 0 -2.22045e-016
    outer loop
      vertex 3.06643e-016 15.7497 9.381
      vertex 1.77636e-015 0 16
      vertex 1.9984e-016 1.55885 8.9
    endloop
  endfacet
  facet normal 1 0 -2.22045e-016
    outer loop
      vertex 1.77636e-015 0 16
      vertex 3.9968e-016 0 9.8
      vertex 1.9984e-016 1.55885 8.9
    endloop
  endfacet
  facet normal 1 0 -2.22045e-016
    outer loop
      vertex 1.72474e-015 -1.91453 15.7675
      vertex 3.9968e-016 0 9.8
      vertex 1.77636e-015 0 16
    endloop
  endfacet
  facet normal 1 0 -2.22045e-016
    outer loop
      vertex 3.9968e-016 0 9.8
      vertex 1.57289e-015 -3.71778 15.0836
      vertex 1.9984e-016 -1.55885 8.9
    endloop
  endfacet
  facet normal 1 0 -2.22045e-016
    outer loop
      vertex 1.57289e-015 -3.71778 15.0836
      vertex 3.9968e-016 0 9.8
      vertex 1.72474e-015 -1.91453 15.7675
    endloop
  endfacet
  facet normal 0 -0.354605 0.935016
    outer loop
      vertex -19 -1.91453 15.7675
      vertex -15 -3.71778 15.0836
      vertex -15 -1.91453 15.7675
    endloop
  endfacet
  facet normal 0 -0.354605 0.935016
    outer loop
      vertex -15 -3.71778 15.0836
      vertex -19 -1.91453 15.7675
      vertex -19 -3.71778 15.0836
    endloop
  endfacet
  facet normal 0 -0.354605 0.935016
    outer loop
      vertex -4 -1.91453 15.7675
      vertex 1.57289e-015 -3.71778 15.0836
      vertex 1.72474e-015 -1.91453 15.7675
    endloop
  endfacet
  facet normal 0 -0.354605 0.935016
    outer loop
      vertex 1.57289e-015 -3.71778 15.0836
      vertex -4 -1.91453 15.7675
      vertex -4 -3.71778 15.0836
    endloop
  endfacet
  facet normal 0 -0.120537 0.992709
    outer loop
      vertex -19 0 16
      vertex -15 -1.91453 15.7675
      vertex -15 0 16
    endloop
  endfacet
  facet normal 0 -0.120537 0.992709
    outer loop
      vertex -15 -1.91453 15.7675
      vertex -19 0 16
      vertex -19 -1.91453 15.7675
    endloop
  endfacet
  facet normal 0 -0.120537 0.992709
    outer loop
      vertex -4 0 16
      vertex 1.72474e-015 -1.91453 15.7675
      vertex 1.77636e-015 0 16
    endloop
  endfacet
  facet normal 0 -0.120537 0.992709
    outer loop
      vertex 1.72474e-015 -1.91453 15.7675
      vertex -4 0 16
      vertex -4 -1.91453 15.7675
    endloop
  endfacet
  facet normal 0 -0.748511 0.663123
    outer loop
      vertex -4 -6.58387 12.5445
      vertex 1.32962e-015 -5.30498 13.9881
      vertex -4 -5.30498 13.9881
    endloop
  endfacet
  facet normal 0 -0.748511 0.663123
    outer loop
      vertex 1.32962e-015 -5.30498 13.9881
      vertex -4 -6.58387 12.5445
      vertex 1.00909e-015 -6.58387 12.5445
    endloop
  endfacet
  facet normal 0 -0.748511 0.663123
    outer loop
      vertex -19 -6.58387 12.5445
      vertex -15 -5.30498 13.9881
      vertex -19 -5.30498 13.9881
    endloop
  endfacet
  facet normal 0 -0.748511 0.663123
    outer loop
      vertex -15 -5.30498 13.9881
      vertex -19 -6.58387 12.5445
      vertex -15 -6.58387 12.5445
    endloop
  endfacet
  facet normal 0 -0.568065 0.822984
    outer loop
      vertex -4 -3.71778 15.0836
      vertex 1.32962e-015 -5.30498 13.9881
      vertex 1.57289e-015 -3.71778 15.0836
    endloop
  endfacet
  facet normal 0 -0.568065 0.822984
    outer loop
      vertex 1.32962e-015 -5.30498 13.9881
      vertex -4 -3.71778 15.0836
      vertex -4 -5.30498 13.9881
    endloop
  endfacet
  facet normal 0 -0.568065 0.822984
    outer loop
      vertex -19 -3.71778 15.0836
      vertex -15 -5.30498 13.9881
      vertex -15 -3.71778 15.0836
    endloop
  endfacet
  facet normal 0 -0.568065 0.822984
    outer loop
      vertex -15 -5.30498 13.9881
      vertex -19 -3.71778 15.0836
      vertex -19 -5.30498 13.9881
    endloop
  endfacet
  facet normal 0 -0.885456 0.464723
    outer loop
      vertex -19 -7.48013 10.8368
      vertex -15 -6.58387 12.5445
      vertex -19 -6.58387 12.5445
    endloop
  endfacet
  facet normal 0 -0.885456 0.464723
    outer loop
      vertex -15 -6.58387 12.5445
      vertex -19 -7.48013 10.8368
      vertex -15 -7.48013 10.8368
    endloop
  endfacet
  facet normal 0 -0.885456 0.464723
    outer loop
      vertex -4 -7.48013 10.8368
      vertex 1.00909e-015 -6.58387 12.5445
      vertex -4 -6.58387 12.5445
    endloop
  endfacet
  facet normal 0 -0.885456 0.464723
    outer loop
      vertex 1.00909e-015 -6.58387 12.5445
      vertex -4 -7.48013 10.8368
      vertex 6.29905e-016 -7.48013 10.8368
    endloop
  endfacet
  facet normal 0 -0.970942 0.239316
    outer loop
      vertex -4 -7.94167 8.96429
      vertex 6.29905e-016 -7.48013 10.8368
      vertex -4 -7.48013 10.8368
    endloop
  endfacet
  facet normal 0 -0.970942 0.239316
    outer loop
      vertex 6.29905e-016 -7.48013 10.8368
      vertex -4 -7.94167 8.96429
      vertex 2.14116e-016 -7.94167 8.96429
    endloop
  endfacet
  facet normal 0 -0.970942 0.239316
    outer loop
      vertex -19 -7.94167 8.96429
      vertex -15 -7.48013 10.8368
      vertex -19 -7.48013 10.8368
    endloop
  endfacet
  facet normal 0 -0.970942 0.239316
    outer loop
      vertex -15 -7.48013 10.8368
      vertex -19 -7.94167 8.96429
      vertex -15 -7.94167 8.96429
    endloop
  endfacet
  facet normal -0 0.120537 0.992709
    outer loop
      vertex -19 21.9145 15.7675
      vertex 1.77636e-015 20 16
      vertex 1.72474e-015 21.9145 15.7675
    endloop
  endfacet
  facet normal 0 0.120537 0.992709
    outer loop
      vertex 1.77636e-015 20 16
      vertex -19 21.9145 15.7675
      vertex -19 20 16
    endloop
  endfacet
  facet normal 0 1 -0
    outer loop
      vertex 0 27.9417 8
      vertex -19 27.9417 8.96429
      vertex 2.14116e-016 27.9417 8.96429
    endloop
  endfacet
  facet normal 0 1 0
    outer loop
      vertex -19 27.9417 8.96429
      vertex 0 27.9417 8
      vertex -19 27.9417 8
    endloop
  endfacet
  facet normal 0 0.748511 0.663122
    outer loop
      vertex 1.00909e-015 26.5839 12.5445
      vertex -19 25.305 13.9881
      vertex 1.32962e-015 25.305 13.9881
    endloop
  endfacet
  facet normal 0 0.748511 0.663122
    outer loop
      vertex -19 25.305 13.9881
      vertex 1.00909e-015 26.5839 12.5445
      vertex -19 26.5839 12.5445
    endloop
  endfacet
  facet normal -0 0.568065 0.822984
    outer loop
      vertex -19 25.305 13.9881
      vertex 1.57289e-015 23.7178 15.0836
      vertex 1.32962e-015 25.305 13.9881
    endloop
  endfacet
  facet normal 0 0.568065 0.822984
    outer loop
      vertex 1.57289e-015 23.7178 15.0836
      vertex -19 25.305 13.9881
      vertex -19 23.7178 15.0836
    endloop
  endfacet
  facet normal -0 0.354605 0.935016
    outer loop
      vertex -19 23.7178 15.0836
      vertex 1.72474e-015 21.9145 15.7675
      vertex 1.57289e-015 23.7178 15.0836
    endloop
  endfacet
  facet normal 0 0.354605 0.935016
    outer loop
      vertex 1.72474e-015 21.9145 15.7675
      vertex -19 23.7178 15.0836
      vertex -19 21.9145 15.7675
    endloop
  endfacet
  facet normal 0 0.970942 0.239315
    outer loop
      vertex 2.14116e-016 27.9417 8.96429
      vertex -19 27.4801 10.8368
      vertex 6.29905e-016 27.4801 10.8368
    endloop
  endfacet
  facet normal 0 0.970942 0.239315
    outer loop
      vertex -19 27.4801 10.8368
      vertex 2.14116e-016 27.9417 8.96429
      vertex -19 27.9417 8.96429
    endloop
  endfacet
  facet normal 0 0.885456 0.464723
    outer loop
      vertex 6.29905e-016 27.4801 10.8368
      vertex -19 26.5839 12.5445
      vertex 1.00909e-015 26.5839 12.5445
    endloop
  endfacet
  facet normal 0 0.885456 0.464723
    outer loop
      vertex -19 26.5839 12.5445
      vertex 6.29905e-016 27.4801 10.8368
      vertex -19 27.4801 10.8368
    endloop
  endfacet
  facet normal -2.22045e-016 0 -1
    outer loop
      vertex -15 -8 3.33067e-015
      vertex -19 -8 4.21885e-015
      vertex -15 8.93922 3.33067e-015
    endloop
  endfacet
  facet normal -2.22045e-016 -0 -1
    outer loop
      vertex -4 8.93922 8.88178e-016
      vertex -1.77636e-015 -8 0
      vertex -4 -8 8.88178e-016
    endloop
  endfacet
  facet normal -2.22045e-016 0 -1
    outer loop
      vertex -1.77636e-015 -8 0
      vertex -4 8.93922 8.88178e-016
      vertex -1.77636e-015 28 0
    endloop
  endfacet
  facet normal -2.22045e-016 -3.00993e-032 -1
    outer loop
      vertex -15 8.93922 3.33067e-015
      vertex -1.77636e-015 28 0
      vertex -4 8.93922 8.88178e-016
    endloop
  endfacet
  facet normal -2.22045e-016 -4.35648e-033 -1
    outer loop
      vertex -15 8.93922 3.33067e-015
      vertex -19 28 4.21885e-015
      vertex -1.77636e-015 28 0
    endloop
  endfacet
  facet normal -2.22045e-016 -0 -1
    outer loop
      vertex -19 28 4.21885e-015
      vertex -15 8.93922 3.33067e-015
      vertex -19 -8 4.21885e-015
    endloop
  endfacet
  facet normal 0 0 1
    outer loop
      vertex 1.77636e-015 20 16
      vertex -4 8.93922 16
      vertex 1.77636e-015 0 16
    endloop
  endfacet
  facet normal 0 0 1
    outer loop
      vertex 1.77636e-015 20 16
      vertex -15 8.93922 16
      vertex -4 8.93922 16
    endloop
  endfacet
  facet normal -0 0 1
    outer loop
      vertex -19 20 16
      vertex -15 8.93922 16
      vertex 1.77636e-015 20 16
    endloop
  endfacet
  facet normal 0 0 1
    outer loop
      vertex -19 0 16
      vertex -15 8.93922 16
      vertex -19 20 16
    endloop
  endfacet
  facet normal 0 0 1
    outer loop
      vertex -15 8.93922 16
      vertex -19 0 16
      vertex -15 0 16
    endloop
  endfacet
  facet normal 0 0 1
    outer loop
      vertex 1.77636e-015 0 16
      vertex -4 8.93922 16
      vertex -4 0 16
    endloop
  endfacet
  facet normal -0 0 1
    outer loop
      vertex -19 -7.94167 8
      vertex -15 -8 8
      vertex -15 -7.94167 8
    endloop
  endfacet
  facet normal 0 0 1
    outer loop
      vertex -15 -8 8
      vertex -19 -7.94167 8
      vertex -19 -8 8
    endloop
  endfacet
  facet normal -0 0 1
    outer loop
      vertex -19 28 8
      vertex 0 27.9417 8
      vertex 0 28 8
    endloop
  endfacet
  facet normal 0 0 1
    outer loop
      vertex 0 27.9417 8
      vertex -19 28 8
      vertex -19 27.9417 8
    endloop
  endfacet
  facet normal -0 0 1
    outer loop
      vertex -4 -7.94167 8
      vertex 0 -8 8
      vertex 0 -7.94167 8
    endloop
  endfacet
  facet normal 0 0 1
    outer loop
      vertex 0 -8 8
      vertex -4 -7.94167 8
      vertex -4 -8 8
    endloop
  endfacet
  facet normal 0 -1 0
    outer loop
      vertex -19 -8 4.21885e-015
      vertex -15 -8 8
      vertex -19 -8 8
    endloop
  endfacet
  facet normal 0 -1 -0
    outer loop
      vertex -15 -8 8
      vertex -19 -8 4.21885e-015
      vertex -15 -8 3.33067e-015
    endloop
  endfacet
  facet normal 0 -1 0
    outer loop
      vertex -4 -8 8.88178e-016
      vertex 0 -8 8
      vertex -4 -8 8
    endloop
  endfacet
  facet normal 0 -1 0
    outer loop
      vertex 0 -8 8
      vertex -4 -8 8.88178e-016
      vertex -1.77636e-015 -8 0
    endloop
  endfacet
  facet normal 0 1 0
    outer loop
      vertex 0 28 8
      vertex -19 28 4.21885e-015
      vertex -19 28 8
    endloop
  endfacet
  facet normal -0 1 0
    outer loop
      vertex -19 28 4.21885e-015
      vertex 0 28 8
      vertex -1.77636e-015 28 0
    endloop
  endfacet
  facet normal 0 -0.5 -0.866025
    outer loop
      vertex -19 0 9.8
      vertex -15 1.55885 8.9
      vertex -15 0 9.8
    endloop
  endfacet
  facet normal -0 -0.5 -0.866025
    outer loop
      vertex -15 1.55885 8.9
      vertex -19 0 9.8
      vertex -19 1.55885 8.9
    endloop
  endfacet
  facet normal 0 -0.5 -0.866025
    outer loop
      vertex -4 0 9.8
      vertex 1.9984e-016 1.55885 8.9
      vertex 3.9968e-016 0 9.8
    endloop
  endfacet
  facet normal -0 -0.5 -0.866025
    outer loop
      vertex 1.9984e-016 1.55885 8.9
      vertex -4 0 9.8
      vertex -4 1.55885 8.9
    endloop
  endfacet
  facet normal 0 -0.5 0.866025
    outer loop
      vertex -19 1.55885 7.1
      vertex -15 0 6.2
      vertex -15 1.55885 7.1
    endloop
  endfacet
  facet normal 0 -0.5 0.866025
    outer loop
      vertex -15 0 6.2
      vertex -19 1.55885 7.1
      vertex -19 0 6.2
    endloop
  endfacet
  facet normal 0 -0.5 0.866025
    outer loop
      vertex -4 1.55885 7.1
      vertex -3.9968e-016 0 6.2
      vertex -1.9984e-016 1.55885 7.1
    endloop
  endfacet
  facet normal 0 -0.5 0.866025
    outer loop
      vertex -3.9968e-016 0 6.2
      vertex -4 1.55885 7.1
      vertex -4 0 6.2
    endloop
  endfacet
  facet normal 0 -1 0
    outer loop
      vertex -19 1.55885 7.1
      vertex -15 1.55885 8.9
      vertex -19 1.55885 8.9
    endloop
  endfacet
  facet normal 0 -1 -0
    outer loop
      vertex -15 1.55885 8.9
      vertex -19 1.55885 7.1
      vertex -15 1.55885 7.1
    endloop
  endfacet
  facet normal 0 -1 0
    outer loop
      vertex -4 1.55885 7.1
      vertex 1.9984e-016 1.55885 8.9
      vertex -4 1.55885 8.9
    endloop
  endfacet
  facet normal 0 -1 0
    outer loop
      vertex 1.9984e-016 1.55885 8.9
      vertex -4 1.55885 7.1
      vertex -1.9984e-016 1.55885 7.1
    endloop
  endfacet
  facet normal 0 1 -0
    outer loop
      vertex -15 -1.55885 7.1
      vertex -19 -1.55885 8.9
      vertex -15 -1.55885 8.9
    endloop
  endfacet
  facet normal 0 1 0
    outer loop
      vertex -19 -1.55885 8.9
      vertex -15 -1.55885 7.1
      vertex -19 -1.55885 7.1
    endloop
  endfacet
  facet normal 0 1 -0
    outer loop
      vertex -1.9984e-016 -1.55885 7.1
      vertex -4 -1.55885 8.9
      vertex 1.9984e-016 -1.55885 8.9
    endloop
  endfacet
  facet normal 0 1 0
    outer loop
      vertex -4 -1.55885 8.9
      vertex -1.9984e-016 -1.55885 7.1
      vertex -4 -1.55885 7.1
    endloop
  endfacet
  facet normal -0 0.5 0.866025
    outer loop
      vertex -19 0 6.2
      vertex -15 -1.55885 7.1
      vertex -15 0 6.2
    endloop
  endfacet
  facet normal 0 0.5 0.866025
    outer loop
      vertex -15 -1.55885 7.1
      vertex -19 0 6.2
      vertex -19 -1.55885 7.1
    endloop
  endfacet
  facet normal -0 0.5 0.866025
    outer loop
      vertex -4 0 6.2
      vertex -1.9984e-016 -1.55885 7.1
      vertex -3.9968e-016 0 6.2
    endloop
  endfacet
  facet normal 0 0.5 0.866025
    outer loop
      vertex -1.9984e-016 -1.55885 7.1
      vertex -4 0 6.2
      vertex -4 -1.55885 7.1
    endloop
  endfacet
  facet normal 0 0.5 -0.866025
    outer loop
      vertex -19 -1.55885 8.9
      vertex -15 0 9.8
      vertex -15 -1.55885 8.9
    endloop
  endfacet
  facet normal 0 0.5 -0.866025
    outer loop
      vertex -15 0 9.8
      vertex -19 -1.55885 8.9
      vertex -19 0 9.8
    endloop
  endfacet
  facet normal 0 0.5 -0.866025
    outer loop
      vertex -4 -1.55885 8.9
      vertex 3.9968e-016 0 9.8
      vertex 1.9984e-016 -1.55885 8.9
    endloop
  endfacet
  facet normal 0 0.5 -0.866025
    outer loop
      vertex 3.9968e-016 0 9.8
      vertex -4 -1.55885 8.9
      vertex -4 0 9.8
    endloop
  endfacet
  facet normal 0 -0.207912 -0.978148
    outer loop
      vertex -19 20 12.469
      vertex 9.06527e-016 21.8177 12.0826
      vertex 9.92317e-016 20 12.469
    endloop
  endfacet
  facet normal -0 -0.207912 -0.978148
    outer loop
      vertex 9.06527e-016 21.8177 12.0826
      vertex -19 20 12.469
      vertex -19 21.8177 12.0826
    endloop
  endfacet
  facet normal -0 0 1
    outer loop
      vertex -19 20.9292 3.62866
      vertex -9.70633e-016 19.0708 3.62866
      vertex -9.70633e-016 20.9292 3.62866
    endloop
  endfacet
  facet normal 0 0 1
    outer loop
      vertex -9.70633e-016 19.0708 3.62866
      vertex -19 20.9292 3.62866
      vertex -19 19.0708 3.62866
    endloop
  endfacet
  facet normal 0 -0.994522 -0.104529
    outer loop
      vertex -19 24.4445 7.53286
      vertex 3.06643e-016 24.2503 9.381
      vertex -19 24.2503 9.381
    endloop
  endfacet
  facet normal 0 -0.994522 -0.104529
    outer loop
      vertex 3.06643e-016 24.2503 9.381
      vertex -19 24.4445 7.53286
      vertex -1.03725e-016 24.4445 7.53286
    endloop
  endfacet
  facet normal 0 -0.587785 -0.809017
    outer loop
      vertex -19 21.8177 12.0826
      vertex 6.6399e-016 23.3211 10.9903
      vertex 9.06527e-016 21.8177 12.0826
    endloop
  endfacet
  facet normal -0 -0.587785 -0.809017
    outer loop
      vertex 6.6399e-016 23.3211 10.9903
      vertex -19 21.8177 12.0826
      vertex -19 23.3211 10.9903
    endloop
  endfacet
  facet normal 0 -0.866025 -0.5
    outer loop
      vertex -19 24.2503 9.381
      vertex 6.6399e-016 23.3211 10.9903
      vertex -19 23.3211 10.9903
    endloop
  endfacet
  facet normal 0 -0.866025 -0.5
    outer loop
      vertex 6.6399e-016 23.3211 10.9903
      vertex -19 24.2503 9.381
      vertex 3.06643e-016 24.2503 9.381
    endloop
  endfacet
  facet normal 0 -0.951056 0.309018
    outer loop
      vertex -19 23.8703 5.7655
      vertex -1.03725e-016 24.4445 7.53286
      vertex -19 24.4445 7.53286
    endloop
  endfacet
  facet normal 0 -0.951056 0.309018
    outer loop
      vertex -1.03725e-016 24.4445 7.53286
      vertex -19 23.8703 5.7655
      vertex -4.96159e-016 23.8703 5.7655
    endloop
  endfacet
  facet normal 0 -0.743145 0.66913
    outer loop
      vertex -19 22.6268 4.3845
      vertex -4.96159e-016 23.8703 5.7655
      vertex -19 23.8703 5.7655
    endloop
  endfacet
  facet normal 0 -0.743145 0.66913
    outer loop
      vertex -4.96159e-016 23.8703 5.7655
      vertex -19 22.6268 4.3845
      vertex -8.02802e-016 22.6268 4.3845
    endloop
  endfacet
  facet normal -0 0.406736 0.913546
    outer loop
      vertex -19 19.0708 3.62866
      vertex -8.02802e-016 17.3732 4.3845
      vertex -9.70633e-016 19.0708 3.62866
    endloop
  endfacet
  facet normal 0 0.406736 0.913546
    outer loop
      vertex -8.02802e-016 17.3732 4.3845
      vertex -19 19.0708 3.62866
      vertex -19 17.3732 4.3845
    endloop
  endfacet
  facet normal 0 0.994522 -0.104529
    outer loop
      vertex -1.03725e-016 15.5555 7.53286
      vertex -19 15.7497 9.381
      vertex 3.06643e-016 15.7497 9.381
    endloop
  endfacet
  facet normal 0 0.994522 -0.104529
    outer loop
      vertex -19 15.7497 9.381
      vertex -1.03725e-016 15.5555 7.53286
      vertex -19 15.5555 7.53286
    endloop
  endfacet
  facet normal 0 0.743145 0.669131
    outer loop
      vertex -8.02802e-016 17.3732 4.3845
      vertex -19 16.1297 5.7655
      vertex -4.96159e-016 16.1297 5.7655
    endloop
  endfacet
  facet normal 0 0.743145 0.669131
    outer loop
      vertex -19 16.1297 5.7655
      vertex -8.02802e-016 17.3732 4.3845
      vertex -19 17.3732 4.3845
    endloop
  endfacet
  facet normal 0 -0.406736 0.913546
    outer loop
      vertex -19 22.6268 4.3845
      vertex -9.70633e-016 20.9292 3.62866
      vertex -8.02802e-016 22.6268 4.3845
    endloop
  endfacet
  facet normal 0 -0.406736 0.913546
    outer loop
      vertex -9.70633e-016 20.9292 3.62866
      vertex -19 22.6268 4.3845
      vertex -19 20.9292 3.62866
    endloop
  endfacet
  facet normal 0 0.951056 0.309017
    outer loop
      vertex -4.96159e-016 16.1297 5.7655
      vertex -19 15.5555 7.53286
      vertex -1.03725e-016 15.5555 7.53286
    endloop
  endfacet
  facet normal 0 0.951056 0.309017
    outer loop
      vertex -19 15.5555 7.53286
      vertex -4.96159e-016 16.1297 5.7655
      vertex -19 16.1297 5.7655
    endloop
  endfacet
  facet normal 0 0.866025 -0.5
    outer loop
      vertex 3.06643e-016 15.7497 9.381
      vertex -19 16.6789 10.9903
      vertex 6.6399e-016 16.6789 10.9903
    endloop
  endfacet
  facet normal 0 0.866025 -0.5
    outer loop
      vertex -19 16.6789 10.9903
      vertex 3.06643e-016 15.7497 9.381
      vertex -19 15.7497 9.381
    endloop
  endfacet
  facet normal 0 0.587786 -0.809017
    outer loop
      vertex -19 16.6789 10.9903
      vertex 9.06527e-016 18.1823 12.0826
      vertex 6.6399e-016 16.6789 10.9903
    endloop
  endfacet
  facet normal 0 0.587786 -0.809017
    outer loop
      vertex 9.06527e-016 18.1823 12.0826
      vertex -19 16.6789 10.9903
      vertex -19 18.1823 12.0826
    endloop
  endfacet
  facet normal 0 0.207912 -0.978148
    outer loop
      vertex -19 18.1823 12.0826
      vertex 9.92317e-016 20 12.469
      vertex 9.06527e-016 18.1823 12.0826
    endloop
  endfacet
  facet normal 0 0.207912 -0.978148
    outer loop
      vertex 9.92317e-016 20 12.469
      vertex -19 18.1823 12.0826
      vertex -19 20 12.469
    endloop
  endfacet
  facet normal 0 -0.978148 -0.207912
    outer loop
      vertex -15 11.9343 9.25434
      vertex -4 11.4127 11.7082
      vertex -15 11.4127 11.7082
    endloop
  endfacet
  facet normal 0 -0.978148 -0.207912
    outer loop
      vertex -4 11.4127 11.7082
      vertex -15 11.9343 9.25434
      vertex -4 11.9343 9.25434
    endloop
  endfacet
  facet normal 0 -0.913545 -0.406737
    outer loop
      vertex -15 11.4127 11.7082
      vertex -4 10.3923 14
      vertex -15 10.3923 14
    endloop
  endfacet
  facet normal 0 -0.913545 -0.406737
    outer loop
      vertex -4 10.3923 14
      vertex -15 11.4127 11.7082
      vertex -4 11.4127 11.7082
    endloop
  endfacet
  facet normal 0 -0.913545 0.406737
    outer loop
      vertex -15 10.3923 2
      vertex -4 11.4127 4.2918
      vertex -15 11.4127 4.2918
    endloop
  endfacet
  facet normal 0 -0.913545 0.406737
    outer loop
      vertex -4 11.4127 4.2918
      vertex -15 10.3923 2
      vertex -4 10.3923 2
    endloop
  endfacet
  facet normal 0 -0.809017 -0.587785
    outer loop
      vertex -15 10.3923 14
      vertex -4 8.93922 16
      vertex -15 8.93922 16
    endloop
  endfacet
  facet normal 0 -0.809017 -0.587785
    outer loop
      vertex -4 8.93922 16
      vertex -15 10.3923 14
      vertex -4 10.3923 14
    endloop
  endfacet
  facet normal 0 -1 0
    outer loop
      vertex -15 11.9343 6.74566
      vertex -4 11.9343 9.25434
      vertex -15 11.9343 9.25434
    endloop
  endfacet
  facet normal 0 -1 -0
    outer loop
      vertex -4 11.9343 9.25434
      vertex -15 11.9343 6.74566
      vertex -4 11.9343 6.74566
    endloop
  endfacet
  facet normal 0 -0.809017 0.587785
    outer loop
      vertex -15 8.93922 3.33067e-015
      vertex -4 10.3923 2
      vertex -15 10.3923 2
    endloop
  endfacet
  facet normal 1.46976e-016 -0.809017 0.587785
    outer loop
      vertex -4 10.3923 2
      vertex -15 8.93922 3.33067e-015
      vertex -4 8.93922 8.88178e-016
    endloop
  endfacet
  facet normal 0 -0.978148 0.207912
    outer loop
      vertex -15 11.4127 4.2918
      vertex -4 11.9343 6.74566
      vertex -15 11.9343 6.74566
    endloop
  endfacet
  facet normal 0 -0.978148 0.207912
    outer loop
      vertex -4 11.9343 6.74566
      vertex -15 11.4127 4.2918
      vertex -4 11.4127 4.2918
    endloop
  endfacet
  facet normal 1 0 0
    outer loop
      vertex -15 1.55885 8.9
      vertex -15 11.9343 9.25434
      vertex -15 11.4127 11.7082
    endloop
  endfacet
  facet normal 1 0 0
    outer loop
      vertex -15 11.9343 9.25434
      vertex -15 1.55885 8.9
      vertex -15 11.9343 6.74566
    endloop
  endfacet
  facet normal 1 0 0
    outer loop
      vertex -15 1.55885 8.9
      vertex -15 11.4127 11.7082
      vertex -15 10.3923 14
    endloop
  endfacet
  facet normal 1 -0 0
    outer loop
      vertex -15 1.55885 7.1
      vertex -15 11.9343 6.74566
      vertex -15 1.55885 8.9
    endloop
  endfacet
  facet normal 1 0 0
    outer loop
      vertex -15 1.55885 8.9
      vertex -15 10.3923 14
      vertex -15 8.93922 16
    endloop
  endfacet
  facet normal 1 0 0
    outer loop
      vertex -15 11.9343 6.74566
      vertex -15 1.55885 7.1
      vertex -15 11.4127 4.2918
    endloop
  endfacet
  facet normal 1 0 0
    outer loop
      vertex -15 11.4127 4.2918
      vertex -15 1.55885 7.1
      vertex -15 10.3923 2
    endloop
  endfacet
  facet normal 1 -0 0
    outer loop
      vertex -15 0 16
      vertex -15 1.55885 8.9
      vertex -15 8.93922 16
    endloop
  endfacet
  facet normal 1 0 0
    outer loop
      vertex -15 0 16
      vertex -15 0 9.8
      vertex -15 1.55885 8.9
    endloop
  endfacet
  facet normal 1 -0 0
    outer loop
      vertex -15 -1.91453 15.7675
      vertex -15 0 9.8
      vertex -15 0 16
    endloop
  endfacet
  facet normal 1 0 0
    outer loop
      vertex -15 0 9.8
      vertex -15 -3.71778 15.0836
      vertex -15 -1.55885 8.9
    endloop
  endfacet
  facet normal 1 -0 0
    outer loop
      vertex -15 -3.71778 15.0836
      vertex -15 0 9.8
      vertex -15 -1.91453 15.7675
    endloop
  endfacet
  facet normal 1 0 0
    outer loop
      vertex -15 10.3923 2
      vertex -15 1.55885 7.1
      vertex -15 8.93922 3.33067e-015
    endloop
  endfacet
  facet normal 1 -0 0
    outer loop
      vertex -15 0 6.2
      vertex -15 8.93922 3.33067e-015
      vertex -15 1.55885 7.1
    endloop
  endfacet
  facet normal 1 0 0
    outer loop
      vertex -15 -8 3.33067e-015
      vertex -15 0 6.2
      vertex -15 -1.55885 7.1
    endloop
  endfacet
  facet normal 1 -0 0
    outer loop
      vertex -15 -5.30498 13.9881
      vertex -15 -1.55885 8.9
      vertex -15 -3.71778 15.0836
    endloop
  endfacet
  facet normal 1 -0 0
    outer loop
      vertex -15 -6.58387 12.5445
      vertex -15 -1.55885 8.9
      vertex -15 -5.30498 13.9881
    endloop
  endfacet
  facet normal 1 -0 0
    outer loop
      vertex -15 -7.48013 10.8368
      vertex -15 -1.55885 8.9
      vertex -15 -6.58387 12.5445
    endloop
  endfacet
  facet normal 1 -0 0
    outer loop
      vertex -15 -7.94167 8.96429
      vertex -15 -1.55885 8.9
      vertex -15 -7.48013 10.8368
    endloop
  endfacet
  facet normal 1 0 0
    outer loop
      vertex -15 -7.94167 8
      vertex -15 -1.55885 8.9
      vertex -15 -7.94167 8.96429
    endloop
  endfacet
  facet normal 1 0 0
    outer loop
      vertex -15 -1.55885 8.9
      vertex -15 -7.94167 8
      vertex -15 -1.55885 7.1
    endloop
  endfacet
  facet normal 1 0 0
    outer loop
      vertex -15 -8 3.33067e-015
      vertex -15 -1.55885 7.1
      vertex -15 -7.94167 8
    endloop
  endfacet
  facet normal 1 0 0
    outer loop
      vertex -15 -8 3.33067e-015
      vertex -15 -7.94167 8
      vertex -15 -8 8
    endloop
  endfacet
  facet normal 1 0 0
    outer loop
      vertex -15 0 6.2
      vertex -15 -8 3.33067e-015
      vertex -15 8.93922 3.33067e-015
    endloop
  endfacet
  facet normal -1 0 0
    outer loop
      vertex -4 1.55885 7.1
      vertex -4 11.9343 6.74566
      vertex -4 11.4127 4.2918
    endloop
  endfacet
  facet normal -1 0 0
    outer loop
      vertex -4 11.9343 6.74566
      vertex -4 1.55885 7.1
      vertex -4 11.9343 9.25434
    endloop
  endfacet
  facet normal -1 0 0
    outer loop
      vertex -4 1.55885 7.1
      vertex -4 11.4127 4.2918
      vertex -4 10.3923 2
    endloop
  endfacet
  facet normal -1 0 0
    outer loop
      vertex -4 1.55885 8.9
      vertex -4 11.9343 9.25434
      vertex -4 1.55885 7.1
    endloop
  endfacet
  facet normal -1 0 0
    outer loop
      vertex -4 1.55885 7.1
      vertex -4 10.3923 2
      vertex -4 8.93922 8.88178e-016
    endloop
  endfacet
  facet normal -1 -0 0
    outer loop
      vertex -4 11.9343 9.25434
      vertex -4 1.55885 8.9
      vertex -4 11.4127 11.7082
    endloop
  endfacet
  facet normal -1 -0 0
    outer loop
      vertex -4 11.4127 11.7082
      vertex -4 1.55885 8.9
      vertex -4 10.3923 14
    endloop
  endfacet
  facet normal -1 0 0
    outer loop
      vertex -4 8.93922 8.88178e-016
      vertex -4 0 6.2
      vertex -4 1.55885 7.1
    endloop
  endfacet
  facet normal -1 0 0
    outer loop
      vertex -4 -8 8.88178e-016
      vertex -4 0 6.2
      vertex -4 8.93922 8.88178e-016
    endloop
  endfacet
  facet normal -1 0 0
    outer loop
      vertex -4 -7.94167 8
      vertex -4 -1.55885 8.9
      vertex -4 -1.55885 7.1
    endloop
  endfacet
  facet normal -1 0 0
    outer loop
      vertex -4 -1.55885 8.9
      vertex -4 -3.71778 15.0836
      vertex -4 -1.91453 15.7675
    endloop
  endfacet
  facet normal -1 0 0
    outer loop
      vertex -4 -1.55885 8.9
      vertex -4 -5.30498 13.9881
      vertex -4 -3.71778 15.0836
    endloop
  endfacet
  facet normal -1 0 0
    outer loop
      vertex -4 -1.55885 8.9
      vertex -4 -6.58387 12.5445
      vertex -4 -5.30498 13.9881
    endloop
  endfacet
  facet normal -1 0 0
    outer loop
      vertex -4 -1.55885 8.9
      vertex -4 -7.48013 10.8368
      vertex -4 -6.58387 12.5445
    endloop
  endfacet
  facet normal -1 -0 0
    outer loop
      vertex -4 0 6.2
      vertex -4 -8 8.88178e-016
      vertex -4 -1.55885 7.1
    endloop
  endfacet
  facet normal -1 -0 0
    outer loop
      vertex -4 -1.55885 8.9
      vertex -4 -7.94167 8
      vertex -4 -7.94167 8.96429
    endloop
  endfacet
  facet normal -1 -0 0
    outer loop
      vertex -4 -1.55885 7.1
      vertex -4 -8 8.88178e-016
      vertex -4 -7.94167 8
    endloop
  endfacet
  facet normal -1 -0 0
    outer loop
      vertex -4 -7.94167 8
      vertex -4 -8 8.88178e-016
      vertex -4 -8 8
    endloop
  endfacet
  facet normal -1 -0 0
    outer loop
      vertex -4 10.3923 14
      vertex -4 1.55885 8.9
      vertex -4 8.93922 16
    endloop
  endfacet
  facet normal -1 0 0
    outer loop
      vertex -4 0 16
      vertex -4 1.55885 8.9
      vertex -4 0 9.8
    endloop
  endfacet
  facet normal -1 0 0
    outer loop
      vertex -4 1.55885 8.9
      vertex -4 0 16
      vertex -4 8.93922 16
    endloop
  endfacet
  facet normal -1 0 0
    outer loop
      vertex -4 -1.91453 15.7675
      vertex -4 0 9.8
      vertex -4 -1.55885 8.9
    endloop
  endfacet
  facet normal -1 0 0
    outer loop
      vertex -4 0 9.8
      vertex -4 -1.91453 15.7675
      vertex -4 0 16
    endloop
  endfacet
  facet normal -1 0 0
    outer loop
      vertex -4 -1.55885 8.9
      vertex -4 -7.94167 8.96429
      vertex -4 -7.48013 10.8368
    endloop
  endfacet
endsolid OpenSCAD_Model
